%TF.GenerationSoftware,KiCad,Pcbnew,(6.0.9-0)*%
%TF.CreationDate,2023-01-03T19:06:45+00:00*%
%TF.ProjectId,ds3231_plus,64733332-3331-45f7-906c-75732e6b6963,rev?*%
%TF.SameCoordinates,Original*%
%TF.FileFunction,Legend,Bot*%
%TF.FilePolarity,Positive*%
%FSLAX46Y46*%
G04 Gerber Fmt 4.6, Leading zero omitted, Abs format (unit mm)*
G04 Created by KiCad (PCBNEW (6.0.9-0)) date 2023-01-03 19:06:45*
%MOMM*%
%LPD*%
G01*
G04 APERTURE LIST*
%ADD10C,0.125000*%
%ADD11C,0.150000*%
%ADD12C,0.120000*%
G04 APERTURE END LIST*
D10*
X156726190Y-88547619D02*
X156226190Y-88547619D01*
X156726190Y-88785714D02*
X156226190Y-88785714D01*
X156726190Y-89071428D01*
X156226190Y-89071428D01*
X156226190Y-89238095D02*
X156226190Y-89523809D01*
X156726190Y-89380952D02*
X156226190Y-89380952D01*
X156226190Y-80761904D02*
X156226190Y-81071428D01*
X156416666Y-80904761D01*
X156416666Y-80976190D01*
X156440476Y-81023809D01*
X156464285Y-81047619D01*
X156511904Y-81071428D01*
X156630952Y-81071428D01*
X156678571Y-81047619D01*
X156702380Y-81023809D01*
X156726190Y-80976190D01*
X156726190Y-80833333D01*
X156702380Y-80785714D01*
X156678571Y-80761904D01*
X156678571Y-81285714D02*
X156702380Y-81309523D01*
X156726190Y-81285714D01*
X156702380Y-81261904D01*
X156678571Y-81285714D01*
X156726190Y-81285714D01*
X156226190Y-81476190D02*
X156226190Y-81785714D01*
X156416666Y-81619047D01*
X156416666Y-81690476D01*
X156440476Y-81738095D01*
X156464285Y-81761904D01*
X156511904Y-81785714D01*
X156630952Y-81785714D01*
X156678571Y-81761904D01*
X156702380Y-81738095D01*
X156726190Y-81690476D01*
X156726190Y-81547619D01*
X156702380Y-81500000D01*
X156678571Y-81476190D01*
X156226190Y-81928571D02*
X156726190Y-82095238D01*
X156226190Y-82261904D01*
X156702380Y-83392857D02*
X156726190Y-83464285D01*
X156726190Y-83583333D01*
X156702380Y-83630952D01*
X156678571Y-83654761D01*
X156630952Y-83678571D01*
X156583333Y-83678571D01*
X156535714Y-83654761D01*
X156511904Y-83630952D01*
X156488095Y-83583333D01*
X156464285Y-83488095D01*
X156440476Y-83440476D01*
X156416666Y-83416666D01*
X156369047Y-83392857D01*
X156321428Y-83392857D01*
X156273809Y-83416666D01*
X156250000Y-83440476D01*
X156226190Y-83488095D01*
X156226190Y-83607142D01*
X156250000Y-83678571D01*
X156726190Y-83892857D02*
X156226190Y-83892857D01*
X156226190Y-84011904D01*
X156250000Y-84083333D01*
X156297619Y-84130952D01*
X156345238Y-84154761D01*
X156440476Y-84178571D01*
X156511904Y-84178571D01*
X156607142Y-84154761D01*
X156654761Y-84130952D01*
X156702380Y-84083333D01*
X156726190Y-84011904D01*
X156726190Y-83892857D01*
X156583333Y-84369047D02*
X156583333Y-84607142D01*
X156726190Y-84321428D02*
X156226190Y-84488095D01*
X156726190Y-84654761D01*
X156702380Y-85904761D02*
X156726190Y-85976190D01*
X156726190Y-86095238D01*
X156702380Y-86142857D01*
X156678571Y-86166666D01*
X156630952Y-86190476D01*
X156583333Y-86190476D01*
X156535714Y-86166666D01*
X156511904Y-86142857D01*
X156488095Y-86095238D01*
X156464285Y-86000000D01*
X156440476Y-85952380D01*
X156416666Y-85928571D01*
X156369047Y-85904761D01*
X156321428Y-85904761D01*
X156273809Y-85928571D01*
X156250000Y-85952380D01*
X156226190Y-86000000D01*
X156226190Y-86119047D01*
X156250000Y-86190476D01*
X156678571Y-86690476D02*
X156702380Y-86666666D01*
X156726190Y-86595238D01*
X156726190Y-86547619D01*
X156702380Y-86476190D01*
X156654761Y-86428571D01*
X156607142Y-86404761D01*
X156511904Y-86380952D01*
X156440476Y-86380952D01*
X156345238Y-86404761D01*
X156297619Y-86428571D01*
X156250000Y-86476190D01*
X156226190Y-86547619D01*
X156226190Y-86595238D01*
X156250000Y-86666666D01*
X156273809Y-86690476D01*
X156726190Y-87142857D02*
X156726190Y-86904761D01*
X156226190Y-86904761D01*
D11*
X158023809Y-96671190D02*
X158071428Y-96623571D01*
X158166666Y-96575952D01*
X158261904Y-96575952D01*
X158357142Y-96623571D01*
X158404761Y-96671190D01*
X158452380Y-96766428D01*
X158452380Y-96861666D01*
X158404761Y-96956904D01*
X158357142Y-97004523D01*
X158261904Y-97052142D01*
X158166666Y-97052142D01*
X158071428Y-97004523D01*
X158023809Y-96956904D01*
X158023809Y-96575952D02*
X158023809Y-96956904D01*
X157976190Y-97004523D01*
X157928571Y-97004523D01*
X157833333Y-96956904D01*
X157785714Y-96861666D01*
X157785714Y-96623571D01*
X157880952Y-96480714D01*
X158023809Y-96385476D01*
X158214285Y-96337857D01*
X158404761Y-96385476D01*
X158547619Y-96480714D01*
X158642857Y-96623571D01*
X158690476Y-96814047D01*
X158642857Y-97004523D01*
X158547619Y-97147380D01*
X158404761Y-97242619D01*
X158214285Y-97290238D01*
X158023809Y-97242619D01*
X157880952Y-97147380D01*
X157357142Y-97147380D02*
X157357142Y-96147380D01*
X157357142Y-96528333D02*
X157261904Y-96480714D01*
X157071428Y-96480714D01*
X156976190Y-96528333D01*
X156928571Y-96575952D01*
X156880952Y-96671190D01*
X156880952Y-96956904D01*
X156928571Y-97052142D01*
X156976190Y-97099761D01*
X157071428Y-97147380D01*
X157261904Y-97147380D01*
X157357142Y-97099761D01*
X156452380Y-97147380D02*
X156452380Y-96480714D01*
X156452380Y-96147380D02*
X156500000Y-96195000D01*
X156452380Y-96242619D01*
X156404761Y-96195000D01*
X156452380Y-96147380D01*
X156452380Y-96242619D01*
X156119047Y-96480714D02*
X155738095Y-96480714D01*
X155976190Y-96147380D02*
X155976190Y-97004523D01*
X155928571Y-97099761D01*
X155833333Y-97147380D01*
X155738095Y-97147380D01*
X155404761Y-97147380D02*
X155404761Y-96147380D01*
X155404761Y-96528333D02*
X155309523Y-96480714D01*
X155119047Y-96480714D01*
X155023809Y-96528333D01*
X154976190Y-96575952D01*
X154928571Y-96671190D01*
X154928571Y-96956904D01*
X154976190Y-97052142D01*
X155023809Y-97099761D01*
X155119047Y-97147380D01*
X155309523Y-97147380D01*
X155404761Y-97099761D01*
X154071428Y-97147380D02*
X154071428Y-96623571D01*
X154119047Y-96528333D01*
X154214285Y-96480714D01*
X154404761Y-96480714D01*
X154500000Y-96528333D01*
X154071428Y-97099761D02*
X154166666Y-97147380D01*
X154404761Y-97147380D01*
X154500000Y-97099761D01*
X154547619Y-97004523D01*
X154547619Y-96909285D01*
X154500000Y-96814047D01*
X154404761Y-96766428D01*
X154166666Y-96766428D01*
X154071428Y-96718809D01*
X153595238Y-96480714D02*
X153595238Y-97147380D01*
X153595238Y-96575952D02*
X153547619Y-96528333D01*
X153452380Y-96480714D01*
X153309523Y-96480714D01*
X153214285Y-96528333D01*
X153166666Y-96623571D01*
X153166666Y-97147380D01*
X152690476Y-97147380D02*
X152690476Y-96147380D01*
X152595238Y-96766428D02*
X152309523Y-97147380D01*
X152309523Y-96480714D02*
X152690476Y-96861666D01*
X158095238Y-99138333D02*
X158142857Y-99090714D01*
X158238095Y-98947857D01*
X158285714Y-98852619D01*
X158333333Y-98709761D01*
X158380952Y-98471666D01*
X158380952Y-98281190D01*
X158333333Y-98043095D01*
X158285714Y-97900238D01*
X158238095Y-97805000D01*
X158142857Y-97662142D01*
X158095238Y-97614523D01*
X157190476Y-97805000D02*
X157285714Y-97757380D01*
X157428571Y-97757380D01*
X157571428Y-97805000D01*
X157666666Y-97900238D01*
X157714285Y-97995476D01*
X157761904Y-98185952D01*
X157761904Y-98328809D01*
X157714285Y-98519285D01*
X157666666Y-98614523D01*
X157571428Y-98709761D01*
X157428571Y-98757380D01*
X157333333Y-98757380D01*
X157190476Y-98709761D01*
X157142857Y-98662142D01*
X157142857Y-98328809D01*
X157333333Y-98328809D01*
X156714285Y-98757380D02*
X156714285Y-98090714D01*
X156714285Y-97757380D02*
X156761904Y-97805000D01*
X156714285Y-97852619D01*
X156666666Y-97805000D01*
X156714285Y-97757380D01*
X156714285Y-97852619D01*
X156380952Y-98090714D02*
X156000000Y-98090714D01*
X156238095Y-97757380D02*
X156238095Y-98614523D01*
X156190476Y-98709761D01*
X156095238Y-98757380D01*
X156000000Y-98757380D01*
X155666666Y-98757380D02*
X155666666Y-97757380D01*
X155666666Y-98233571D02*
X155095238Y-98233571D01*
X155095238Y-98757380D02*
X155095238Y-97757380D01*
X154190476Y-98090714D02*
X154190476Y-98757380D01*
X154619047Y-98090714D02*
X154619047Y-98614523D01*
X154571428Y-98709761D01*
X154476190Y-98757380D01*
X154333333Y-98757380D01*
X154238095Y-98709761D01*
X154190476Y-98662142D01*
X153714285Y-98757380D02*
X153714285Y-97757380D01*
X153714285Y-98138333D02*
X153619047Y-98090714D01*
X153428571Y-98090714D01*
X153333333Y-98138333D01*
X153285714Y-98185952D01*
X153238095Y-98281190D01*
X153238095Y-98566904D01*
X153285714Y-98662142D01*
X153333333Y-98709761D01*
X153428571Y-98757380D01*
X153619047Y-98757380D01*
X153714285Y-98709761D01*
X152904761Y-99138333D02*
X152857142Y-99090714D01*
X152761904Y-98947857D01*
X152714285Y-98852619D01*
X152666666Y-98709761D01*
X152619047Y-98471666D01*
X152619047Y-98281190D01*
X152666666Y-98043095D01*
X152714285Y-97900238D01*
X152761904Y-97805000D01*
X152857142Y-97662142D01*
X152904761Y-97614523D01*
D10*
X156250000Y-91119047D02*
X156226190Y-91071428D01*
X156226190Y-91000000D01*
X156250000Y-90928571D01*
X156297619Y-90880952D01*
X156345238Y-90857142D01*
X156440476Y-90833333D01*
X156511904Y-90833333D01*
X156607142Y-90857142D01*
X156654761Y-90880952D01*
X156702380Y-90928571D01*
X156726190Y-91000000D01*
X156726190Y-91047619D01*
X156702380Y-91119047D01*
X156678571Y-91142857D01*
X156511904Y-91142857D01*
X156511904Y-91047619D01*
X156726190Y-91357142D02*
X156226190Y-91357142D01*
X156726190Y-91642857D01*
X156226190Y-91642857D01*
X156726190Y-91880952D02*
X156226190Y-91880952D01*
X156226190Y-92000000D01*
X156250000Y-92071428D01*
X156297619Y-92119047D01*
X156345238Y-92142857D01*
X156440476Y-92166666D01*
X156511904Y-92166666D01*
X156607142Y-92142857D01*
X156654761Y-92119047D01*
X156702380Y-92071428D01*
X156726190Y-92000000D01*
X156726190Y-91880952D01*
%TO.C,Backup Battery*%
X154464285Y-86428571D02*
X154488095Y-86500000D01*
X154511904Y-86523809D01*
X154559523Y-86547619D01*
X154630952Y-86547619D01*
X154678571Y-86523809D01*
X154702380Y-86500000D01*
X154726190Y-86452380D01*
X154726190Y-86261904D01*
X154226190Y-86261904D01*
X154226190Y-86428571D01*
X154250000Y-86476190D01*
X154273809Y-86500000D01*
X154321428Y-86523809D01*
X154369047Y-86523809D01*
X154416666Y-86500000D01*
X154440476Y-86476190D01*
X154464285Y-86428571D01*
X154464285Y-86261904D01*
X154726190Y-86976190D02*
X154464285Y-86976190D01*
X154416666Y-86952380D01*
X154392857Y-86904761D01*
X154392857Y-86809523D01*
X154416666Y-86761904D01*
X154702380Y-86976190D02*
X154726190Y-86928571D01*
X154726190Y-86809523D01*
X154702380Y-86761904D01*
X154654761Y-86738095D01*
X154607142Y-86738095D01*
X154559523Y-86761904D01*
X154535714Y-86809523D01*
X154535714Y-86928571D01*
X154511904Y-86976190D01*
X154702380Y-87428571D02*
X154726190Y-87380952D01*
X154726190Y-87285714D01*
X154702380Y-87238095D01*
X154678571Y-87214285D01*
X154630952Y-87190476D01*
X154488095Y-87190476D01*
X154440476Y-87214285D01*
X154416666Y-87238095D01*
X154392857Y-87285714D01*
X154392857Y-87380952D01*
X154416666Y-87428571D01*
X154726190Y-87642857D02*
X154226190Y-87642857D01*
X154535714Y-87690476D02*
X154726190Y-87833333D01*
X154392857Y-87833333D02*
X154583333Y-87642857D01*
X154392857Y-88261904D02*
X154726190Y-88261904D01*
X154392857Y-88047619D02*
X154654761Y-88047619D01*
X154702380Y-88071428D01*
X154726190Y-88119047D01*
X154726190Y-88190476D01*
X154702380Y-88238095D01*
X154678571Y-88261904D01*
X154392857Y-88500000D02*
X154892857Y-88500000D01*
X154416666Y-88500000D02*
X154392857Y-88547619D01*
X154392857Y-88642857D01*
X154416666Y-88690476D01*
X154440476Y-88714285D01*
X154488095Y-88738095D01*
X154630952Y-88738095D01*
X154678571Y-88714285D01*
X154702380Y-88690476D01*
X154726190Y-88642857D01*
X154726190Y-88547619D01*
X154702380Y-88500000D01*
X154464285Y-89500000D02*
X154488095Y-89571428D01*
X154511904Y-89595238D01*
X154559523Y-89619047D01*
X154630952Y-89619047D01*
X154678571Y-89595238D01*
X154702380Y-89571428D01*
X154726190Y-89523809D01*
X154726190Y-89333333D01*
X154226190Y-89333333D01*
X154226190Y-89500000D01*
X154250000Y-89547619D01*
X154273809Y-89571428D01*
X154321428Y-89595238D01*
X154369047Y-89595238D01*
X154416666Y-89571428D01*
X154440476Y-89547619D01*
X154464285Y-89500000D01*
X154464285Y-89333333D01*
X154726190Y-90047619D02*
X154464285Y-90047619D01*
X154416666Y-90023809D01*
X154392857Y-89976190D01*
X154392857Y-89880952D01*
X154416666Y-89833333D01*
X154702380Y-90047619D02*
X154726190Y-90000000D01*
X154726190Y-89880952D01*
X154702380Y-89833333D01*
X154654761Y-89809523D01*
X154607142Y-89809523D01*
X154559523Y-89833333D01*
X154535714Y-89880952D01*
X154535714Y-90000000D01*
X154511904Y-90047619D01*
X154392857Y-90214285D02*
X154392857Y-90404761D01*
X154226190Y-90285714D02*
X154654761Y-90285714D01*
X154702380Y-90309523D01*
X154726190Y-90357142D01*
X154726190Y-90404761D01*
X154392857Y-90500000D02*
X154392857Y-90690476D01*
X154226190Y-90571428D02*
X154654761Y-90571428D01*
X154702380Y-90595238D01*
X154726190Y-90642857D01*
X154726190Y-90690476D01*
X154702380Y-91047619D02*
X154726190Y-91000000D01*
X154726190Y-90904761D01*
X154702380Y-90857142D01*
X154654761Y-90833333D01*
X154464285Y-90833333D01*
X154416666Y-90857142D01*
X154392857Y-90904761D01*
X154392857Y-91000000D01*
X154416666Y-91047619D01*
X154464285Y-91071428D01*
X154511904Y-91071428D01*
X154559523Y-90833333D01*
X154726190Y-91285714D02*
X154392857Y-91285714D01*
X154488095Y-91285714D02*
X154440476Y-91309523D01*
X154416666Y-91333333D01*
X154392857Y-91380952D01*
X154392857Y-91428571D01*
X154392857Y-91547619D02*
X154726190Y-91666666D01*
X154392857Y-91785714D02*
X154726190Y-91666666D01*
X154845238Y-91619047D01*
X154869047Y-91595238D01*
X154892857Y-91547619D01*
%TO.C,Battery Cutoff Switch*%
X153750000Y-79464285D02*
X153678571Y-79488095D01*
X153654761Y-79511904D01*
X153630952Y-79559523D01*
X153630952Y-79630952D01*
X153654761Y-79678571D01*
X153678571Y-79702380D01*
X153726190Y-79726190D01*
X153916666Y-79726190D01*
X153916666Y-79226190D01*
X153750000Y-79226190D01*
X153702380Y-79250000D01*
X153678571Y-79273809D01*
X153654761Y-79321428D01*
X153654761Y-79369047D01*
X153678571Y-79416666D01*
X153702380Y-79440476D01*
X153750000Y-79464285D01*
X153916666Y-79464285D01*
X153202380Y-79726190D02*
X153202380Y-79464285D01*
X153226190Y-79416666D01*
X153273809Y-79392857D01*
X153369047Y-79392857D01*
X153416666Y-79416666D01*
X153202380Y-79702380D02*
X153250000Y-79726190D01*
X153369047Y-79726190D01*
X153416666Y-79702380D01*
X153440476Y-79654761D01*
X153440476Y-79607142D01*
X153416666Y-79559523D01*
X153369047Y-79535714D01*
X153250000Y-79535714D01*
X153202380Y-79511904D01*
X153035714Y-79392857D02*
X152845238Y-79392857D01*
X152964285Y-79226190D02*
X152964285Y-79654761D01*
X152940476Y-79702380D01*
X152892857Y-79726190D01*
X152845238Y-79726190D01*
X152750000Y-79392857D02*
X152559523Y-79392857D01*
X152678571Y-79226190D02*
X152678571Y-79654761D01*
X152654761Y-79702380D01*
X152607142Y-79726190D01*
X152559523Y-79726190D01*
X152202380Y-79702380D02*
X152250000Y-79726190D01*
X152345238Y-79726190D01*
X152392857Y-79702380D01*
X152416666Y-79654761D01*
X152416666Y-79464285D01*
X152392857Y-79416666D01*
X152345238Y-79392857D01*
X152250000Y-79392857D01*
X152202380Y-79416666D01*
X152178571Y-79464285D01*
X152178571Y-79511904D01*
X152416666Y-79559523D01*
X151964285Y-79726190D02*
X151964285Y-79392857D01*
X151964285Y-79488095D02*
X151940476Y-79440476D01*
X151916666Y-79416666D01*
X151869047Y-79392857D01*
X151821428Y-79392857D01*
X151702380Y-79392857D02*
X151583333Y-79726190D01*
X151464285Y-79392857D02*
X151583333Y-79726190D01*
X151630952Y-79845238D01*
X151654761Y-79869047D01*
X151702380Y-79892857D01*
X150607142Y-79678571D02*
X150630952Y-79702380D01*
X150702380Y-79726190D01*
X150750000Y-79726190D01*
X150821428Y-79702380D01*
X150869047Y-79654761D01*
X150892857Y-79607142D01*
X150916666Y-79511904D01*
X150916666Y-79440476D01*
X150892857Y-79345238D01*
X150869047Y-79297619D01*
X150821428Y-79250000D01*
X150750000Y-79226190D01*
X150702380Y-79226190D01*
X150630952Y-79250000D01*
X150607142Y-79273809D01*
X150178571Y-79392857D02*
X150178571Y-79726190D01*
X150392857Y-79392857D02*
X150392857Y-79654761D01*
X150369047Y-79702380D01*
X150321428Y-79726190D01*
X150250000Y-79726190D01*
X150202380Y-79702380D01*
X150178571Y-79678571D01*
X150011904Y-79392857D02*
X149821428Y-79392857D01*
X149940476Y-79226190D02*
X149940476Y-79654761D01*
X149916666Y-79702380D01*
X149869047Y-79726190D01*
X149821428Y-79726190D01*
X149583333Y-79726190D02*
X149630952Y-79702380D01*
X149654761Y-79678571D01*
X149678571Y-79630952D01*
X149678571Y-79488095D01*
X149654761Y-79440476D01*
X149630952Y-79416666D01*
X149583333Y-79392857D01*
X149511904Y-79392857D01*
X149464285Y-79416666D01*
X149440476Y-79440476D01*
X149416666Y-79488095D01*
X149416666Y-79630952D01*
X149440476Y-79678571D01*
X149464285Y-79702380D01*
X149511904Y-79726190D01*
X149583333Y-79726190D01*
X149273809Y-79392857D02*
X149083333Y-79392857D01*
X149202380Y-79726190D02*
X149202380Y-79297619D01*
X149178571Y-79250000D01*
X149130952Y-79226190D01*
X149083333Y-79226190D01*
X148988095Y-79392857D02*
X148797619Y-79392857D01*
X148916666Y-79726190D02*
X148916666Y-79297619D01*
X148892857Y-79250000D01*
X148845238Y-79226190D01*
X148797619Y-79226190D01*
X148273809Y-79702380D02*
X148202380Y-79726190D01*
X148083333Y-79726190D01*
X148035714Y-79702380D01*
X148011904Y-79678571D01*
X147988095Y-79630952D01*
X147988095Y-79583333D01*
X148011904Y-79535714D01*
X148035714Y-79511904D01*
X148083333Y-79488095D01*
X148178571Y-79464285D01*
X148226190Y-79440476D01*
X148250000Y-79416666D01*
X148273809Y-79369047D01*
X148273809Y-79321428D01*
X148250000Y-79273809D01*
X148226190Y-79250000D01*
X148178571Y-79226190D01*
X148059523Y-79226190D01*
X147988095Y-79250000D01*
X147821428Y-79392857D02*
X147726190Y-79726190D01*
X147630952Y-79488095D01*
X147535714Y-79726190D01*
X147440476Y-79392857D01*
X147250000Y-79726190D02*
X147250000Y-79392857D01*
X147250000Y-79226190D02*
X147273809Y-79250000D01*
X147250000Y-79273809D01*
X147226190Y-79250000D01*
X147250000Y-79226190D01*
X147250000Y-79273809D01*
X147083333Y-79392857D02*
X146892857Y-79392857D01*
X147011904Y-79226190D02*
X147011904Y-79654761D01*
X146988095Y-79702380D01*
X146940476Y-79726190D01*
X146892857Y-79726190D01*
X146511904Y-79702380D02*
X146559523Y-79726190D01*
X146654761Y-79726190D01*
X146702380Y-79702380D01*
X146726190Y-79678571D01*
X146750000Y-79630952D01*
X146750000Y-79488095D01*
X146726190Y-79440476D01*
X146702380Y-79416666D01*
X146654761Y-79392857D01*
X146559523Y-79392857D01*
X146511904Y-79416666D01*
X146297619Y-79726190D02*
X146297619Y-79226190D01*
X146083333Y-79726190D02*
X146083333Y-79464285D01*
X146107142Y-79416666D01*
X146154761Y-79392857D01*
X146226190Y-79392857D01*
X146273809Y-79416666D01*
X146297619Y-79440476D01*
D12*
%TO.C,Backup Battery*%
X153000000Y-92700000D02*
X147000000Y-92700000D01*
X145000000Y-91000000D02*
X145000000Y-87000000D01*
X145000000Y-91000000D02*
X147000000Y-92700000D01*
X145000000Y-87000000D02*
X147000000Y-85300000D01*
X153000000Y-85300000D02*
X147000000Y-85300000D01*
X152993972Y-86607373D02*
G75*
G03*
X153000000Y-85296277I-393972J657373D01*
G01*
X152995415Y-86608617D02*
G75*
G03*
X153000000Y-91400000I4504582J-2391383D01*
G01*
X152990673Y-92705648D02*
G75*
G03*
X153000000Y-91400000I-390674J655648D01*
G01*
%TO.C,Battery Cutoff Switch*%
X147240000Y-81561000D02*
X147240000Y-82830000D01*
X152760000Y-81561000D02*
X152760000Y-82830000D01*
X152760000Y-80170000D02*
X152760000Y-80820000D01*
X152760000Y-80170000D02*
X147240000Y-80170000D01*
X152760000Y-82830000D02*
X147240000Y-82830000D01*
X154610000Y-80820000D02*
X152760000Y-80820000D01*
X147240000Y-80170000D02*
X147240000Y-81439000D01*
%TD*%
M02*
