%TF.GenerationSoftware,KiCad,Pcbnew,(6.0.9-0)*%
%TF.CreationDate,2023-01-03T19:06:45+00:00*%
%TF.ProjectId,ds3231_plus,64733332-3331-45f7-906c-75732e6b6963,rev?*%
%TF.SameCoordinates,Original*%
%TF.FileFunction,Copper,L2,Bot*%
%TF.FilePolarity,Positive*%
%FSLAX46Y46*%
G04 Gerber Fmt 4.6, Leading zero omitted, Abs format (unit mm)*
G04 Created by KiCad (PCBNEW (6.0.9-0)) date 2023-01-03 19:06:45*
%MOMM*%
%LPD*%
G01*
G04 APERTURE LIST*
%TA.AperFunction,ComponentPad*%
%ADD10R,1.700000X1.700000*%
%TD*%
%TA.AperFunction,ComponentPad*%
%ADD11O,1.700000X1.700000*%
%TD*%
%TA.AperFunction,SMDPad,CuDef*%
%ADD12R,5.080000X1.780000*%
%TD*%
%TA.AperFunction,SMDPad,CuDef*%
%ADD13R,3.960000X3.960000*%
%TD*%
%TA.AperFunction,SMDPad,CuDef*%
%ADD14R,1.600000X0.760000*%
%TD*%
%TA.AperFunction,ViaPad*%
%ADD15C,0.800000*%
%TD*%
%TA.AperFunction,Conductor*%
%ADD16C,0.500000*%
%TD*%
%TA.AperFunction,Conductor*%
%ADD17C,0.300000*%
%TD*%
G04 APERTURE END LIST*
D10*
%TO.P,J2,1,Pin_1*%
%TO.N,GND*%
X158000000Y-91575000D03*
D11*
%TO.P,J2,2,Pin_2*%
%TO.N,/INT*%
X158000000Y-89035000D03*
%TO.P,J2,3,Pin_3*%
%TO.N,/SCL*%
X158000000Y-86495000D03*
%TO.P,J2,4,Pin_4*%
%TO.N,/SDA*%
X158000000Y-83955000D03*
%TO.P,J2,5,Pin_5*%
%TO.N,+3.3V*%
X158000000Y-81415000D03*
%TD*%
D12*
%TO.P,Backup Battery,1,+*%
%TO.N,Net-(BT1-Pad1)*%
X149500000Y-84300000D03*
X149500000Y-93700000D03*
D13*
%TO.P,Backup Battery,2,-*%
%TO.N,GND*%
X149500000Y-89000000D03*
%TD*%
D14*
%TO.P,Battery Cutoff Switch,1*%
%TO.N,Net-(SW1-Pad1)*%
X153810000Y-81500000D03*
%TO.P,Battery Cutoff Switch,2*%
%TO.N,Net-(BT1-Pad1)*%
X146190000Y-81500000D03*
%TD*%
D15*
%TO.N,GND*%
X155000000Y-93500000D03*
X145500000Y-93500000D03*
X143000000Y-82000000D03*
%TO.N,/SDA*%
X155500000Y-82000000D03*
X155500000Y-83504500D03*
%TO.N,Net-(SW1-Pad1)*%
X154000000Y-85149500D03*
%TD*%
D16*
%TO.N,Net-(BT1-Pad1)*%
X146190000Y-81500000D02*
X147700000Y-81500000D01*
X147200000Y-83300000D02*
X145500000Y-85000000D01*
X145500000Y-91000000D02*
X147200000Y-92700000D01*
X149500000Y-83300000D02*
X147200000Y-83300000D01*
X147700000Y-81500000D02*
X149500000Y-83300000D01*
X147200000Y-92700000D02*
X149500000Y-92700000D01*
X145500000Y-85000000D02*
X145500000Y-91000000D01*
D17*
%TO.N,/SDA*%
X155500000Y-83504500D02*
X155500000Y-82000000D01*
D16*
%TO.N,Net-(SW1-Pad1)*%
X153810000Y-81500000D02*
X153810000Y-84810000D01*
X153810000Y-84810000D02*
X154000000Y-85000000D01*
X154000000Y-85000000D02*
X154000000Y-85149500D01*
%TD*%
%TA.AperFunction,Conductor*%
%TO.N,GND*%
G36*
X159433621Y-79528502D02*
G01*
X159480114Y-79582158D01*
X159491500Y-79634500D01*
X159491500Y-80832362D01*
X159471498Y-80900483D01*
X159417842Y-80946976D01*
X159347568Y-80957080D01*
X159282988Y-80927586D01*
X159249951Y-80882605D01*
X159203419Y-80775589D01*
X159203419Y-80775588D01*
X159201354Y-80770840D01*
X159104437Y-80621029D01*
X159082822Y-80587617D01*
X159082820Y-80587614D01*
X159080014Y-80583277D01*
X158929670Y-80418051D01*
X158925619Y-80414852D01*
X158925615Y-80414848D01*
X158758414Y-80282800D01*
X158758410Y-80282798D01*
X158754359Y-80279598D01*
X158558789Y-80171638D01*
X158553920Y-80169914D01*
X158553916Y-80169912D01*
X158353087Y-80098795D01*
X158353083Y-80098794D01*
X158348212Y-80097069D01*
X158343119Y-80096162D01*
X158343116Y-80096161D01*
X158133373Y-80058800D01*
X158133367Y-80058799D01*
X158128284Y-80057894D01*
X158054452Y-80056992D01*
X157910081Y-80055228D01*
X157910079Y-80055228D01*
X157904911Y-80055165D01*
X157684091Y-80088955D01*
X157471756Y-80158357D01*
X157273607Y-80261507D01*
X157269474Y-80264610D01*
X157269471Y-80264612D01*
X157245247Y-80282800D01*
X157094965Y-80395635D01*
X156940629Y-80557138D01*
X156937715Y-80561410D01*
X156937714Y-80561411D01*
X156866209Y-80666233D01*
X156814743Y-80741680D01*
X156799793Y-80773888D01*
X156728449Y-80927586D01*
X156720688Y-80944305D01*
X156660989Y-81159570D01*
X156637251Y-81381695D01*
X156650110Y-81604715D01*
X156651247Y-81609761D01*
X156651248Y-81609767D01*
X156656874Y-81634729D01*
X156699222Y-81822639D01*
X156730187Y-81898897D01*
X156768575Y-81993435D01*
X156783266Y-82029616D01*
X156899987Y-82220088D01*
X157046250Y-82388938D01*
X157218126Y-82531632D01*
X157235616Y-82541852D01*
X157291445Y-82574476D01*
X157340169Y-82626114D01*
X157353240Y-82695897D01*
X157326509Y-82761669D01*
X157286055Y-82795027D01*
X157273607Y-82801507D01*
X157269474Y-82804610D01*
X157269471Y-82804612D01*
X157127737Y-82911029D01*
X157094965Y-82935635D01*
X156940629Y-83097138D01*
X156814743Y-83281680D01*
X156799475Y-83314572D01*
X156728449Y-83467586D01*
X156720688Y-83484305D01*
X156660989Y-83699570D01*
X156637251Y-83921695D01*
X156637548Y-83926848D01*
X156637548Y-83926851D01*
X156645896Y-84071626D01*
X156650110Y-84144715D01*
X156651247Y-84149761D01*
X156651248Y-84149767D01*
X156672275Y-84243069D01*
X156699222Y-84362639D01*
X156783266Y-84569616D01*
X156805158Y-84605341D01*
X156895313Y-84752460D01*
X156899987Y-84760088D01*
X157046250Y-84928938D01*
X157218126Y-85071632D01*
X157288595Y-85112811D01*
X157291445Y-85114476D01*
X157340169Y-85166114D01*
X157353240Y-85235897D01*
X157326509Y-85301669D01*
X157286055Y-85335027D01*
X157273607Y-85341507D01*
X157269474Y-85344610D01*
X157269471Y-85344612D01*
X157137244Y-85443891D01*
X157094965Y-85475635D01*
X156940629Y-85637138D01*
X156814743Y-85821680D01*
X156799003Y-85855589D01*
X156724725Y-86015609D01*
X156720688Y-86024305D01*
X156660989Y-86239570D01*
X156637251Y-86461695D01*
X156637548Y-86466848D01*
X156637548Y-86466851D01*
X156649812Y-86679547D01*
X156650110Y-86684715D01*
X156651247Y-86689761D01*
X156651248Y-86689767D01*
X156668508Y-86766351D01*
X156699222Y-86902639D01*
X156783266Y-87109616D01*
X156899987Y-87300088D01*
X157046250Y-87468938D01*
X157218126Y-87611632D01*
X157288595Y-87652811D01*
X157291445Y-87654476D01*
X157340169Y-87706114D01*
X157353240Y-87775897D01*
X157326509Y-87841669D01*
X157286055Y-87875027D01*
X157273607Y-87881507D01*
X157269474Y-87884610D01*
X157269471Y-87884612D01*
X157245247Y-87902800D01*
X157094965Y-88015635D01*
X156940629Y-88177138D01*
X156814743Y-88361680D01*
X156799003Y-88395589D01*
X156728449Y-88547586D01*
X156720688Y-88564305D01*
X156660989Y-88779570D01*
X156637251Y-89001695D01*
X156650110Y-89224715D01*
X156651247Y-89229761D01*
X156651248Y-89229767D01*
X156659763Y-89267548D01*
X156699222Y-89442639D01*
X156783266Y-89649616D01*
X156899987Y-89840088D01*
X157046250Y-90008938D01*
X157050225Y-90012238D01*
X157050231Y-90012244D01*
X157055425Y-90016556D01*
X157095059Y-90075460D01*
X157096555Y-90146441D01*
X157059439Y-90206962D01*
X157019168Y-90231480D01*
X156911946Y-90271676D01*
X156896351Y-90280214D01*
X156794276Y-90356715D01*
X156781715Y-90369276D01*
X156705214Y-90471351D01*
X156696676Y-90486946D01*
X156651522Y-90607394D01*
X156647895Y-90622649D01*
X156642369Y-90673514D01*
X156642000Y-90680328D01*
X156642000Y-91302885D01*
X156646475Y-91318124D01*
X156647865Y-91319329D01*
X156655548Y-91321000D01*
X158128000Y-91321000D01*
X158196121Y-91341002D01*
X158242614Y-91394658D01*
X158254000Y-91447000D01*
X158254000Y-92914884D01*
X158258475Y-92930123D01*
X158259865Y-92931328D01*
X158267548Y-92932999D01*
X158894669Y-92932999D01*
X158901490Y-92932629D01*
X158952352Y-92927105D01*
X158967604Y-92923479D01*
X159088054Y-92878324D01*
X159103649Y-92869786D01*
X159205724Y-92793285D01*
X159218285Y-92780724D01*
X159264674Y-92718827D01*
X159321533Y-92676312D01*
X159392351Y-92671286D01*
X159454645Y-92705346D01*
X159488635Y-92767677D01*
X159491500Y-92794392D01*
X159491500Y-100365500D01*
X159471498Y-100433621D01*
X159417842Y-100480114D01*
X159365500Y-100491500D01*
X142634500Y-100491500D01*
X142566379Y-100471498D01*
X142519886Y-100417842D01*
X142508500Y-100365500D01*
X142508500Y-97054568D01*
X144437382Y-97054568D01*
X144466208Y-97303699D01*
X144467587Y-97308573D01*
X144467588Y-97308577D01*
X144506526Y-97446181D01*
X144534494Y-97545017D01*
X144536628Y-97549592D01*
X144536630Y-97549599D01*
X144638347Y-97767731D01*
X144640484Y-97772313D01*
X144643326Y-97776494D01*
X144643326Y-97776495D01*
X144778605Y-97975552D01*
X144778608Y-97975556D01*
X144781451Y-97979739D01*
X144784928Y-97983416D01*
X144784929Y-97983417D01*
X144885238Y-98089491D01*
X144953767Y-98161959D01*
X144957793Y-98165037D01*
X144957794Y-98165038D01*
X145148981Y-98311212D01*
X145148985Y-98311215D01*
X145153001Y-98314285D01*
X145374026Y-98432797D01*
X145378807Y-98434443D01*
X145378811Y-98434445D01*
X145604538Y-98512169D01*
X145611156Y-98514448D01*
X145714689Y-98532331D01*
X145854380Y-98556460D01*
X145854386Y-98556461D01*
X145858290Y-98557135D01*
X145862251Y-98557315D01*
X145862252Y-98557315D01*
X145886931Y-98558436D01*
X145886950Y-98558436D01*
X145888350Y-98558500D01*
X146063015Y-98558500D01*
X146065523Y-98558298D01*
X146065528Y-98558298D01*
X146244944Y-98543863D01*
X146244949Y-98543862D01*
X146249985Y-98543457D01*
X146254893Y-98542252D01*
X146254896Y-98542251D01*
X146488625Y-98484841D01*
X146493539Y-98483634D01*
X146498191Y-98481659D01*
X146498195Y-98481658D01*
X146719741Y-98387617D01*
X146719742Y-98387617D01*
X146724396Y-98385641D01*
X146936615Y-98252000D01*
X147124738Y-98086147D01*
X147283924Y-97892351D01*
X147410078Y-97675596D01*
X147499955Y-97441461D01*
X147551241Y-97195967D01*
X147562618Y-96945432D01*
X147533792Y-96696301D01*
X147494810Y-96558539D01*
X147466884Y-96459852D01*
X147466883Y-96459850D01*
X147465506Y-96454983D01*
X147463372Y-96450408D01*
X147463370Y-96450401D01*
X147361653Y-96232269D01*
X147361651Y-96232265D01*
X147359516Y-96227687D01*
X147356674Y-96223505D01*
X147221395Y-96024448D01*
X147221392Y-96024444D01*
X147218549Y-96020261D01*
X147117925Y-95913853D01*
X147049713Y-95841721D01*
X147046233Y-95838041D01*
X147042206Y-95834962D01*
X146851019Y-95688788D01*
X146851015Y-95688785D01*
X146846999Y-95685715D01*
X146625974Y-95567203D01*
X146621193Y-95565557D01*
X146621189Y-95565555D01*
X146393633Y-95487201D01*
X146388844Y-95485552D01*
X146285311Y-95467669D01*
X146145620Y-95443540D01*
X146145614Y-95443539D01*
X146141710Y-95442865D01*
X146137749Y-95442685D01*
X146137748Y-95442685D01*
X146113069Y-95441564D01*
X146113050Y-95441564D01*
X146111650Y-95441500D01*
X145936985Y-95441500D01*
X145934477Y-95441702D01*
X145934472Y-95441702D01*
X145755056Y-95456137D01*
X145755051Y-95456138D01*
X145750015Y-95456543D01*
X145745107Y-95457748D01*
X145745104Y-95457749D01*
X145513326Y-95514680D01*
X145506461Y-95516366D01*
X145501809Y-95518341D01*
X145501805Y-95518342D01*
X145381061Y-95569595D01*
X145275604Y-95614359D01*
X145063385Y-95748000D01*
X144875262Y-95913853D01*
X144716076Y-96107649D01*
X144589922Y-96324404D01*
X144500045Y-96558539D01*
X144448759Y-96804033D01*
X144437382Y-97054568D01*
X142508500Y-97054568D01*
X142508500Y-90973349D01*
X144736801Y-90973349D01*
X144737394Y-90980641D01*
X144737394Y-90980644D01*
X144741085Y-91026018D01*
X144741500Y-91036233D01*
X144741500Y-91044293D01*
X144741925Y-91047937D01*
X144744789Y-91072507D01*
X144745222Y-91076882D01*
X144751140Y-91149637D01*
X144753396Y-91156601D01*
X144754587Y-91162560D01*
X144755971Y-91168415D01*
X144756818Y-91175681D01*
X144781735Y-91244327D01*
X144783152Y-91248455D01*
X144805649Y-91317899D01*
X144809445Y-91324154D01*
X144811951Y-91329628D01*
X144814670Y-91335058D01*
X144817167Y-91341937D01*
X144821180Y-91348057D01*
X144821180Y-91348058D01*
X144857186Y-91402976D01*
X144859523Y-91406680D01*
X144897405Y-91469107D01*
X144901121Y-91473315D01*
X144901122Y-91473316D01*
X144904803Y-91477484D01*
X144904776Y-91477508D01*
X144907429Y-91480500D01*
X144910132Y-91483733D01*
X144914144Y-91489852D01*
X144919456Y-91494884D01*
X144970383Y-91543128D01*
X144972825Y-91545506D01*
X146414595Y-92987276D01*
X146448621Y-93049588D01*
X146451500Y-93076371D01*
X146451500Y-94638134D01*
X146458255Y-94700316D01*
X146509385Y-94836705D01*
X146596739Y-94953261D01*
X146713295Y-95040615D01*
X146849684Y-95091745D01*
X146911866Y-95098500D01*
X152088134Y-95098500D01*
X152150316Y-95091745D01*
X152286705Y-95040615D01*
X152403261Y-94953261D01*
X152490615Y-94836705D01*
X152541745Y-94700316D01*
X152548500Y-94638134D01*
X152548500Y-92761866D01*
X152541745Y-92699684D01*
X152490615Y-92563295D01*
X152420446Y-92469669D01*
X156642001Y-92469669D01*
X156642371Y-92476490D01*
X156647895Y-92527352D01*
X156651521Y-92542604D01*
X156696676Y-92663054D01*
X156705214Y-92678649D01*
X156781715Y-92780724D01*
X156794276Y-92793285D01*
X156896351Y-92869786D01*
X156911946Y-92878324D01*
X157032394Y-92923478D01*
X157047649Y-92927105D01*
X157098514Y-92932631D01*
X157105328Y-92933000D01*
X157727885Y-92933000D01*
X157743124Y-92928525D01*
X157744329Y-92927135D01*
X157746000Y-92919452D01*
X157746000Y-91847115D01*
X157741525Y-91831876D01*
X157740135Y-91830671D01*
X157732452Y-91829000D01*
X156660116Y-91829000D01*
X156644877Y-91833475D01*
X156643672Y-91834865D01*
X156642001Y-91842548D01*
X156642001Y-92469669D01*
X152420446Y-92469669D01*
X152403261Y-92446739D01*
X152286705Y-92359385D01*
X152150316Y-92308255D01*
X152088134Y-92301500D01*
X150212240Y-92301500D01*
X150144119Y-92281498D01*
X150110758Y-92250182D01*
X150062849Y-92185081D01*
X150058508Y-92179182D01*
X150037023Y-92160929D01*
X149929294Y-92069406D01*
X149929290Y-92069403D01*
X149923715Y-92064667D01*
X149842180Y-92023033D01*
X149772708Y-91987558D01*
X149772706Y-91987557D01*
X149766192Y-91984231D01*
X149759087Y-91982492D01*
X149759083Y-91982491D01*
X149676762Y-91962348D01*
X149594390Y-91942192D01*
X149588788Y-91941844D01*
X149588785Y-91941844D01*
X149585175Y-91941620D01*
X149585165Y-91941620D01*
X149583236Y-91941500D01*
X147566371Y-91941500D01*
X147498250Y-91921498D01*
X147477276Y-91904595D01*
X147251740Y-91679059D01*
X147217714Y-91616747D01*
X147222779Y-91545932D01*
X147265326Y-91489096D01*
X147331846Y-91464285D01*
X147385064Y-91471982D01*
X147402391Y-91478478D01*
X147417649Y-91482105D01*
X147468514Y-91487631D01*
X147475328Y-91488000D01*
X149227885Y-91488000D01*
X149243124Y-91483525D01*
X149244329Y-91482135D01*
X149246000Y-91474452D01*
X149246000Y-91469884D01*
X149754000Y-91469884D01*
X149758475Y-91485123D01*
X149759865Y-91486328D01*
X149767548Y-91487999D01*
X151524669Y-91487999D01*
X151531490Y-91487629D01*
X151582352Y-91482105D01*
X151597604Y-91478479D01*
X151718054Y-91433324D01*
X151733649Y-91424786D01*
X151835724Y-91348285D01*
X151848285Y-91335724D01*
X151924786Y-91233649D01*
X151933324Y-91218054D01*
X151978478Y-91097606D01*
X151982105Y-91082351D01*
X151987631Y-91031486D01*
X151988000Y-91024672D01*
X151988000Y-89272115D01*
X151983525Y-89256876D01*
X151982135Y-89255671D01*
X151974452Y-89254000D01*
X149772115Y-89254000D01*
X149756876Y-89258475D01*
X149755671Y-89259865D01*
X149754000Y-89267548D01*
X149754000Y-91469884D01*
X149246000Y-91469884D01*
X149246000Y-89272115D01*
X149241525Y-89256876D01*
X149240135Y-89255671D01*
X149232452Y-89254000D01*
X147030116Y-89254000D01*
X147014877Y-89258475D01*
X147013672Y-89259865D01*
X147012001Y-89267548D01*
X147012001Y-91024669D01*
X147012371Y-91031490D01*
X147017895Y-91082352D01*
X147021522Y-91097607D01*
X147028018Y-91114936D01*
X147033201Y-91185743D01*
X146999280Y-91248112D01*
X146937024Y-91282241D01*
X146866200Y-91277294D01*
X146820941Y-91248260D01*
X146295405Y-90722724D01*
X146261379Y-90660412D01*
X146258500Y-90633629D01*
X146258500Y-88727885D01*
X147012000Y-88727885D01*
X147016475Y-88743124D01*
X147017865Y-88744329D01*
X147025548Y-88746000D01*
X149227885Y-88746000D01*
X149243124Y-88741525D01*
X149244329Y-88740135D01*
X149246000Y-88732452D01*
X149246000Y-88727885D01*
X149754000Y-88727885D01*
X149758475Y-88743124D01*
X149759865Y-88744329D01*
X149767548Y-88746000D01*
X151969884Y-88746000D01*
X151985123Y-88741525D01*
X151986328Y-88740135D01*
X151987999Y-88732452D01*
X151987999Y-86975331D01*
X151987629Y-86968510D01*
X151982105Y-86917648D01*
X151978479Y-86902396D01*
X151933324Y-86781946D01*
X151924786Y-86766351D01*
X151848285Y-86664276D01*
X151835724Y-86651715D01*
X151733649Y-86575214D01*
X151718054Y-86566676D01*
X151597606Y-86521522D01*
X151582351Y-86517895D01*
X151531486Y-86512369D01*
X151524672Y-86512000D01*
X149772115Y-86512000D01*
X149756876Y-86516475D01*
X149755671Y-86517865D01*
X149754000Y-86525548D01*
X149754000Y-88727885D01*
X149246000Y-88727885D01*
X149246000Y-86530116D01*
X149241525Y-86514877D01*
X149240135Y-86513672D01*
X149232452Y-86512001D01*
X147475331Y-86512001D01*
X147468510Y-86512371D01*
X147417648Y-86517895D01*
X147402396Y-86521521D01*
X147281946Y-86566676D01*
X147266351Y-86575214D01*
X147164276Y-86651715D01*
X147151715Y-86664276D01*
X147075214Y-86766351D01*
X147066676Y-86781946D01*
X147021522Y-86902394D01*
X147017895Y-86917649D01*
X147012369Y-86968514D01*
X147012000Y-86975328D01*
X147012000Y-88727885D01*
X146258500Y-88727885D01*
X146258500Y-85462521D01*
X146278502Y-85394400D01*
X146332158Y-85347907D01*
X146402432Y-85337803D01*
X146467012Y-85367297D01*
X146502482Y-85418292D01*
X146509385Y-85436705D01*
X146596739Y-85553261D01*
X146713295Y-85640615D01*
X146849684Y-85691745D01*
X146911866Y-85698500D01*
X152088134Y-85698500D01*
X152150316Y-85691745D01*
X152286705Y-85640615D01*
X152403261Y-85553261D01*
X152490615Y-85436705D01*
X152541745Y-85300316D01*
X152548500Y-85238134D01*
X152548500Y-83361866D01*
X152541745Y-83299684D01*
X152490615Y-83163295D01*
X152403261Y-83046739D01*
X152286705Y-82959385D01*
X152150316Y-82908255D01*
X152088134Y-82901500D01*
X150216366Y-82901500D01*
X150148245Y-82881498D01*
X150108648Y-82840867D01*
X150105508Y-82835693D01*
X150102595Y-82830892D01*
X150095197Y-82822516D01*
X150083770Y-82811089D01*
X150071384Y-82796677D01*
X150062851Y-82785082D01*
X150062846Y-82785077D01*
X150058508Y-82779182D01*
X150052930Y-82774443D01*
X150052927Y-82774440D01*
X150018232Y-82744965D01*
X150010716Y-82738035D01*
X149200815Y-81928134D01*
X152501500Y-81928134D01*
X152508255Y-81990316D01*
X152559385Y-82126705D01*
X152646739Y-82243261D01*
X152763295Y-82330615D01*
X152899684Y-82381745D01*
X152926914Y-82384703D01*
X152939108Y-82386028D01*
X153004670Y-82413270D01*
X153045096Y-82471634D01*
X153051500Y-82511291D01*
X153051500Y-84742930D01*
X153050067Y-84761880D01*
X153046801Y-84783349D01*
X153047394Y-84790641D01*
X153047394Y-84790644D01*
X153051085Y-84836018D01*
X153051500Y-84846233D01*
X153051500Y-84854293D01*
X153051925Y-84857937D01*
X153054789Y-84882507D01*
X153055222Y-84886882D01*
X153059497Y-84939432D01*
X153061140Y-84959637D01*
X153063396Y-84966601D01*
X153064587Y-84972560D01*
X153065971Y-84978414D01*
X153066818Y-84985681D01*
X153071715Y-84999171D01*
X153085524Y-85037215D01*
X153092395Y-85093377D01*
X153086496Y-85149500D01*
X153087186Y-85156065D01*
X153101522Y-85292460D01*
X153106458Y-85339428D01*
X153165473Y-85521056D01*
X153260960Y-85686444D01*
X153388747Y-85828366D01*
X153543248Y-85940618D01*
X153549276Y-85943302D01*
X153549278Y-85943303D01*
X153693661Y-86007586D01*
X153717712Y-86018294D01*
X153806093Y-86037080D01*
X153898056Y-86056628D01*
X153898061Y-86056628D01*
X153904513Y-86058000D01*
X154095487Y-86058000D01*
X154101939Y-86056628D01*
X154101944Y-86056628D01*
X154193907Y-86037080D01*
X154282288Y-86018294D01*
X154306339Y-86007586D01*
X154450722Y-85943303D01*
X154450724Y-85943302D01*
X154456752Y-85940618D01*
X154611253Y-85828366D01*
X154739040Y-85686444D01*
X154834527Y-85521056D01*
X154893542Y-85339428D01*
X154898479Y-85292460D01*
X154912814Y-85156065D01*
X154913504Y-85149500D01*
X154905320Y-85071632D01*
X154894232Y-84966135D01*
X154894232Y-84966133D01*
X154893542Y-84959572D01*
X154834527Y-84777944D01*
X154827697Y-84766113D01*
X154742341Y-84618274D01*
X154739040Y-84612556D01*
X154726579Y-84598716D01*
X154630836Y-84492383D01*
X154611253Y-84470634D01*
X154609357Y-84469257D01*
X154572949Y-84410155D01*
X154568500Y-84376969D01*
X154568500Y-84155936D01*
X154588502Y-84087815D01*
X154642158Y-84041322D01*
X154712432Y-84031218D01*
X154777012Y-84060712D01*
X154788136Y-84071626D01*
X154853946Y-84144715D01*
X154888747Y-84183366D01*
X155043248Y-84295618D01*
X155049276Y-84298302D01*
X155049278Y-84298303D01*
X155193780Y-84362639D01*
X155217712Y-84373294D01*
X155311112Y-84393147D01*
X155398056Y-84411628D01*
X155398061Y-84411628D01*
X155404513Y-84413000D01*
X155595487Y-84413000D01*
X155601939Y-84411628D01*
X155601944Y-84411628D01*
X155688887Y-84393147D01*
X155782288Y-84373294D01*
X155806220Y-84362639D01*
X155950722Y-84298303D01*
X155950724Y-84298302D01*
X155956752Y-84295618D01*
X156111253Y-84183366D01*
X156141506Y-84149767D01*
X156234621Y-84046352D01*
X156234622Y-84046351D01*
X156239040Y-84041444D01*
X156334527Y-83876056D01*
X156393542Y-83694428D01*
X156413504Y-83504500D01*
X156393542Y-83314572D01*
X156334527Y-83132944D01*
X156239040Y-82967556D01*
X156190864Y-82914051D01*
X156160146Y-82850044D01*
X156158500Y-82829741D01*
X156158500Y-82674759D01*
X156178502Y-82606638D01*
X156190864Y-82590449D01*
X156234621Y-82541852D01*
X156234622Y-82541851D01*
X156239040Y-82536944D01*
X156322585Y-82392240D01*
X156331223Y-82377279D01*
X156331224Y-82377278D01*
X156334527Y-82371556D01*
X156393542Y-82189928D01*
X156400758Y-82121277D01*
X156412814Y-82006565D01*
X156413504Y-82000000D01*
X156412486Y-81990316D01*
X156394232Y-81816635D01*
X156394232Y-81816633D01*
X156393542Y-81810072D01*
X156334527Y-81628444D01*
X156239040Y-81463056D01*
X156111253Y-81321134D01*
X155956752Y-81208882D01*
X155950724Y-81206198D01*
X155950722Y-81206197D01*
X155788319Y-81133891D01*
X155788318Y-81133891D01*
X155782288Y-81131206D01*
X155688888Y-81111353D01*
X155601944Y-81092872D01*
X155601939Y-81092872D01*
X155595487Y-81091500D01*
X155404513Y-81091500D01*
X155398061Y-81092872D01*
X155398056Y-81092872D01*
X155263440Y-81121486D01*
X155192649Y-81116084D01*
X155136017Y-81073267D01*
X155116977Y-81024615D01*
X155114425Y-81025222D01*
X155112598Y-81017540D01*
X155111745Y-81009684D01*
X155060615Y-80873295D01*
X154973261Y-80756739D01*
X154856705Y-80669385D01*
X154720316Y-80618255D01*
X154658134Y-80611500D01*
X152961866Y-80611500D01*
X152899684Y-80618255D01*
X152763295Y-80669385D01*
X152646739Y-80756739D01*
X152559385Y-80873295D01*
X152508255Y-81009684D01*
X152501500Y-81071866D01*
X152501500Y-81928134D01*
X149200815Y-81928134D01*
X148283770Y-81011089D01*
X148271384Y-80996677D01*
X148262851Y-80985082D01*
X148262846Y-80985077D01*
X148258508Y-80979182D01*
X148252930Y-80974443D01*
X148252927Y-80974440D01*
X148218232Y-80944965D01*
X148210716Y-80938035D01*
X148205021Y-80932340D01*
X148198880Y-80927482D01*
X148182749Y-80914719D01*
X148179345Y-80911928D01*
X148129297Y-80869409D01*
X148129295Y-80869408D01*
X148123715Y-80864667D01*
X148117199Y-80861339D01*
X148112150Y-80857972D01*
X148107021Y-80854805D01*
X148101284Y-80850266D01*
X148035125Y-80819345D01*
X148031225Y-80817439D01*
X147966192Y-80784231D01*
X147959084Y-80782492D01*
X147953441Y-80780393D01*
X147947678Y-80778476D01*
X147941050Y-80775378D01*
X147869583Y-80760513D01*
X147865299Y-80759543D01*
X147831849Y-80751358D01*
X147794390Y-80742192D01*
X147788788Y-80741844D01*
X147788785Y-80741844D01*
X147783236Y-80741500D01*
X147783238Y-80741464D01*
X147779245Y-80741225D01*
X147775053Y-80740851D01*
X147767885Y-80739360D01*
X147701675Y-80741151D01*
X147690479Y-80741454D01*
X147687072Y-80741500D01*
X147374903Y-80741500D01*
X147306782Y-80721498D01*
X147299338Y-80716326D01*
X147236705Y-80669385D01*
X147100316Y-80618255D01*
X147038134Y-80611500D01*
X145341866Y-80611500D01*
X145279684Y-80618255D01*
X145143295Y-80669385D01*
X145026739Y-80756739D01*
X144939385Y-80873295D01*
X144888255Y-81009684D01*
X144881500Y-81071866D01*
X144881500Y-81928134D01*
X144888255Y-81990316D01*
X144939385Y-82126705D01*
X145026739Y-82243261D01*
X145143295Y-82330615D01*
X145279684Y-82381745D01*
X145341866Y-82388500D01*
X146784852Y-82388500D01*
X146852973Y-82408502D01*
X146899466Y-82462158D01*
X146909570Y-82532432D01*
X146880076Y-82597012D01*
X146853937Y-82619872D01*
X146797024Y-82657186D01*
X146793320Y-82659523D01*
X146730893Y-82697405D01*
X146722516Y-82704803D01*
X146722492Y-82704776D01*
X146719500Y-82707429D01*
X146716267Y-82710132D01*
X146710148Y-82714144D01*
X146680951Y-82744965D01*
X146656872Y-82770383D01*
X146654494Y-82772825D01*
X145011089Y-84416230D01*
X144996677Y-84428616D01*
X144985082Y-84437149D01*
X144985077Y-84437154D01*
X144979182Y-84441492D01*
X144974443Y-84447070D01*
X144974440Y-84447073D01*
X144944965Y-84481768D01*
X144938035Y-84489284D01*
X144932340Y-84494979D01*
X144930060Y-84497861D01*
X144914719Y-84517251D01*
X144911928Y-84520655D01*
X144869409Y-84570703D01*
X144864667Y-84576285D01*
X144861339Y-84582801D01*
X144857972Y-84587850D01*
X144854805Y-84592979D01*
X144850266Y-84598716D01*
X144819345Y-84664875D01*
X144817442Y-84668769D01*
X144784231Y-84733808D01*
X144782492Y-84740916D01*
X144780393Y-84746559D01*
X144778476Y-84752322D01*
X144775378Y-84758950D01*
X144773888Y-84766112D01*
X144773888Y-84766113D01*
X144760514Y-84830412D01*
X144759544Y-84834696D01*
X144742192Y-84905610D01*
X144741500Y-84916764D01*
X144741464Y-84916762D01*
X144741225Y-84920755D01*
X144740851Y-84924947D01*
X144739360Y-84932115D01*
X144739558Y-84939432D01*
X144741454Y-85009521D01*
X144741500Y-85012928D01*
X144741500Y-90932930D01*
X144740067Y-90951880D01*
X144736801Y-90973349D01*
X142508500Y-90973349D01*
X142508500Y-79634500D01*
X142528502Y-79566379D01*
X142582158Y-79519886D01*
X142634500Y-79508500D01*
X159365500Y-79508500D01*
X159433621Y-79528502D01*
G37*
%TD.AperFunction*%
%TD*%
M02*
