%TF.GenerationSoftware,KiCad,Pcbnew,(6.0.9-0)*%
%TF.CreationDate,2023-01-03T19:06:45+00:00*%
%TF.ProjectId,ds3231_plus,64733332-3331-45f7-906c-75732e6b6963,rev?*%
%TF.SameCoordinates,Original*%
%TF.FileFunction,Copper,L1,Top*%
%TF.FilePolarity,Positive*%
%FSLAX46Y46*%
G04 Gerber Fmt 4.6, Leading zero omitted, Abs format (unit mm)*
G04 Created by KiCad (PCBNEW (6.0.9-0)) date 2023-01-03 19:06:45*
%MOMM*%
%LPD*%
G01*
G04 APERTURE LIST*
G04 Aperture macros list*
%AMRoundRect*
0 Rectangle with rounded corners*
0 $1 Rounding radius*
0 $2 $3 $4 $5 $6 $7 $8 $9 X,Y pos of 4 corners*
0 Add a 4 corners polygon primitive as box body*
4,1,4,$2,$3,$4,$5,$6,$7,$8,$9,$2,$3,0*
0 Add four circle primitives for the rounded corners*
1,1,$1+$1,$2,$3*
1,1,$1+$1,$4,$5*
1,1,$1+$1,$6,$7*
1,1,$1+$1,$8,$9*
0 Add four rect primitives between the rounded corners*
20,1,$1+$1,$2,$3,$4,$5,0*
20,1,$1+$1,$4,$5,$6,$7,0*
20,1,$1+$1,$6,$7,$8,$9,0*
20,1,$1+$1,$8,$9,$2,$3,0*%
G04 Aperture macros list end*
%TA.AperFunction,SMDPad,CuDef*%
%ADD10RoundRect,0.150000X-0.150000X-0.625000X0.150000X-0.625000X0.150000X0.625000X-0.150000X0.625000X0*%
%TD*%
%TA.AperFunction,SMDPad,CuDef*%
%ADD11RoundRect,0.250000X-0.350000X-0.650000X0.350000X-0.650000X0.350000X0.650000X-0.350000X0.650000X0*%
%TD*%
%TA.AperFunction,SMDPad,CuDef*%
%ADD12RoundRect,0.225000X0.225000X0.250000X-0.225000X0.250000X-0.225000X-0.250000X0.225000X-0.250000X0*%
%TD*%
%TA.AperFunction,SMDPad,CuDef*%
%ADD13RoundRect,0.150000X-0.875000X-0.150000X0.875000X-0.150000X0.875000X0.150000X-0.875000X0.150000X0*%
%TD*%
%TA.AperFunction,ComponentPad*%
%ADD14R,1.700000X1.700000*%
%TD*%
%TA.AperFunction,ComponentPad*%
%ADD15O,1.700000X1.700000*%
%TD*%
%TA.AperFunction,SMDPad,CuDef*%
%ADD16RoundRect,0.200000X-0.200000X-0.275000X0.200000X-0.275000X0.200000X0.275000X-0.200000X0.275000X0*%
%TD*%
%TA.AperFunction,SMDPad,CuDef*%
%ADD17RoundRect,0.200000X0.200000X0.275000X-0.200000X0.275000X-0.200000X-0.275000X0.200000X-0.275000X0*%
%TD*%
%TA.AperFunction,ViaPad*%
%ADD18C,0.800000*%
%TD*%
%TA.AperFunction,Conductor*%
%ADD19C,0.300000*%
%TD*%
%TA.AperFunction,Conductor*%
%ADD20C,0.500000*%
%TD*%
G04 APERTURE END LIST*
D10*
%TO.P,Qwiic,1,Pin_1*%
%TO.N,/SCL*%
X152000000Y-95500000D03*
%TO.P,Qwiic,2,Pin_2*%
%TO.N,/SDA*%
X153000000Y-95500000D03*
%TO.P,Qwiic,3,Pin_3*%
%TO.N,+3.3V*%
X154000000Y-95500000D03*
%TO.P,Qwiic,4,Pin_4*%
%TO.N,GND*%
X155000000Y-95500000D03*
D11*
%TO.P,Qwiic,MP*%
%TO.N,N/C*%
X156300000Y-99375000D03*
X150700000Y-99375000D03*
%TD*%
D12*
%TO.P,C1,1*%
%TO.N,+3.3V*%
X144775000Y-80500000D03*
%TO.P,C1,2*%
%TO.N,GND*%
X143225000Y-80500000D03*
%TD*%
D13*
%TO.P,U1,1,32KHZ*%
%TO.N,unconnected-(U1-Pad1)*%
X143830000Y-82980000D03*
%TO.P,U1,2,VCC*%
%TO.N,+3.3V*%
X143830000Y-84250000D03*
%TO.P,U1,3,~{INT}/SQW*%
%TO.N,/INT*%
X143830000Y-85520000D03*
%TO.P,U1,4,~{RST}*%
%TO.N,unconnected-(U1-Pad4)*%
X143830000Y-86790000D03*
%TO.P,U1,5,GND*%
%TO.N,GND*%
X143830000Y-88060000D03*
%TO.P,U1,6,GND*%
X143830000Y-89330000D03*
%TO.P,U1,7,GND*%
X143830000Y-90600000D03*
%TO.P,U1,8,GND*%
X143830000Y-91870000D03*
%TO.P,U1,9,GND*%
X153130000Y-91870000D03*
%TO.P,U1,10,GND*%
X153130000Y-90600000D03*
%TO.P,U1,11,GND*%
X153130000Y-89330000D03*
%TO.P,U1,12,GND*%
X153130000Y-88060000D03*
%TO.P,U1,13,GND*%
X153130000Y-86790000D03*
%TO.P,U1,14,VBAT*%
%TO.N,Net-(SW1-Pad1)*%
X153130000Y-85520000D03*
%TO.P,U1,15,SDA*%
%TO.N,/SDA*%
X153130000Y-84250000D03*
%TO.P,U1,16,SCL*%
%TO.N,/SCL*%
X153130000Y-82980000D03*
%TD*%
D14*
%TO.P,J2,1,Pin_1*%
%TO.N,GND*%
X158000000Y-91575000D03*
D15*
%TO.P,J2,2,Pin_2*%
%TO.N,/INT*%
X158000000Y-89035000D03*
%TO.P,J2,3,Pin_3*%
%TO.N,/SCL*%
X158000000Y-86495000D03*
%TO.P,J2,4,Pin_4*%
%TO.N,/SDA*%
X158000000Y-83955000D03*
%TO.P,J2,5,Pin_5*%
%TO.N,+3.3V*%
X158000000Y-81415000D03*
%TD*%
D16*
%TO.P,R1,1*%
%TO.N,+3.3V*%
X153675000Y-80500000D03*
%TO.P,R1,2*%
%TO.N,/SDA*%
X155325000Y-80500000D03*
%TD*%
%TO.P,R2,1*%
%TO.N,+3.3V*%
X150175000Y-80500000D03*
%TO.P,R2,2*%
%TO.N,/SCL*%
X151825000Y-80500000D03*
%TD*%
D17*
%TO.P,R3,1*%
%TO.N,+3.3V*%
X148325000Y-80500000D03*
%TO.P,R3,2*%
%TO.N,/INT*%
X146675000Y-80500000D03*
%TD*%
D18*
%TO.N,GND*%
X155000000Y-93500000D03*
X145500000Y-93500000D03*
X143000000Y-82000000D03*
%TO.N,/SDA*%
X155500000Y-82000000D03*
X155500000Y-83504500D03*
%TO.N,Net-(SW1-Pad1)*%
X154000000Y-85149500D03*
%TD*%
D19*
%TO.N,/INT*%
X156035000Y-89965000D02*
X157000000Y-89000000D01*
X156035000Y-96965000D02*
X156035000Y-89965000D01*
X158000000Y-89035000D02*
X157965000Y-89000000D01*
X151000000Y-98000000D02*
X149000000Y-96000000D01*
X157965000Y-89000000D02*
X157000000Y-89000000D01*
X155000000Y-98000000D02*
X151000000Y-98000000D01*
X149000000Y-96000000D02*
X149000000Y-87150000D01*
X156035000Y-96965000D02*
X155000000Y-98000000D01*
X149000000Y-87150000D02*
X146675000Y-84825000D01*
D20*
%TO.N,GND*%
X145370000Y-91870000D02*
X145500000Y-92000000D01*
X153130000Y-91870000D02*
X154630000Y-91870000D01*
X153130000Y-91870000D02*
X153370000Y-91870000D01*
X143225000Y-80500000D02*
X143225000Y-81775000D01*
X155000000Y-89000000D02*
X155000000Y-88000000D01*
X155000000Y-91500000D02*
X155000000Y-90500000D01*
X145330000Y-89330000D02*
X145500000Y-89500000D01*
X155000000Y-90500000D02*
X155000000Y-89000000D01*
X143830000Y-90600000D02*
X145400000Y-90600000D01*
X155000000Y-87000000D02*
X154790000Y-86790000D01*
X145500000Y-90500000D02*
X145500000Y-92000000D01*
X145060000Y-88060000D02*
X145500000Y-88500000D01*
X143830000Y-89330000D02*
X145330000Y-89330000D01*
X143830000Y-91870000D02*
X145370000Y-91870000D01*
X155000000Y-95500000D02*
X155000000Y-93500000D01*
X155000000Y-88000000D02*
X155000000Y-87000000D01*
X154630000Y-91870000D02*
X155000000Y-91500000D01*
X143830000Y-88060000D02*
X145060000Y-88060000D01*
X153130000Y-88060000D02*
X154940000Y-88060000D01*
X154670000Y-89330000D02*
X155000000Y-89000000D01*
X154940000Y-88060000D02*
X155000000Y-88000000D01*
X145500000Y-89500000D02*
X145500000Y-90500000D01*
X145500000Y-92000000D02*
X145500000Y-93500000D01*
X153130000Y-90600000D02*
X154900000Y-90600000D01*
X145500000Y-88500000D02*
X145500000Y-89500000D01*
X154790000Y-86790000D02*
X153130000Y-86790000D01*
X154900000Y-90600000D02*
X155000000Y-90500000D01*
X153130000Y-89330000D02*
X154670000Y-89330000D01*
X153370000Y-91870000D02*
X155000000Y-93500000D01*
X145400000Y-90600000D02*
X145500000Y-90500000D01*
X143225000Y-81775000D02*
X143000000Y-82000000D01*
%TO.N,+3.3V*%
X145500000Y-84000000D02*
X145500000Y-81225000D01*
X150175000Y-79825000D02*
X150750000Y-79250000D01*
X151000000Y-97000000D02*
X153500000Y-97000000D01*
X150175000Y-96175000D02*
X151000000Y-97000000D01*
X150750000Y-79250000D02*
X154250000Y-79250000D01*
X157500000Y-79250000D02*
X154250000Y-79250000D01*
X145250000Y-84250000D02*
X145500000Y-84000000D01*
X158000000Y-81415000D02*
X158000000Y-79750000D01*
X154250000Y-79250000D02*
X153500000Y-80000000D01*
X153500000Y-97000000D02*
X154000000Y-96500000D01*
X154000000Y-96500000D02*
X154000000Y-95500000D01*
X143830000Y-84250000D02*
X145250000Y-84250000D01*
X145500000Y-81225000D02*
X144775000Y-80500000D01*
X150175000Y-80500000D02*
X150175000Y-79825000D01*
X150175000Y-80500000D02*
X148325000Y-80500000D01*
X144775000Y-80500000D02*
X144775000Y-79725000D01*
X145250000Y-79250000D02*
X150750000Y-79250000D01*
X150175000Y-80500000D02*
X150175000Y-96175000D01*
X144775000Y-79725000D02*
X145250000Y-79250000D01*
X158000000Y-79750000D02*
X157500000Y-79250000D01*
D19*
%TO.N,/SDA*%
X155545000Y-83955000D02*
X155500000Y-83910000D01*
X153130000Y-84250000D02*
X155250000Y-84250000D01*
X151500000Y-93000000D02*
X153000000Y-94500000D01*
X153000000Y-94500000D02*
X153000000Y-95500000D01*
X152250000Y-84250000D02*
X151500000Y-85000000D01*
X155500000Y-80675000D02*
X155500000Y-82000000D01*
X153130000Y-84250000D02*
X152250000Y-84250000D01*
X155545000Y-83955000D02*
X158000000Y-83955000D01*
X155500000Y-83910000D02*
X155500000Y-83504500D01*
X155500000Y-80675000D02*
X155325000Y-80500000D01*
X155250000Y-84250000D02*
X155545000Y-83955000D01*
X151500000Y-85000000D02*
X151500000Y-93000000D01*
%TO.N,/SCL*%
X153130000Y-82980000D02*
X153980000Y-82980000D01*
X159255000Y-82755000D02*
X159500000Y-83000000D01*
X153130000Y-82980000D02*
X151825000Y-81675000D01*
X152000000Y-95500000D02*
X152000000Y-94500000D01*
X159500000Y-84995000D02*
X158000000Y-86495000D01*
X154245000Y-82755000D02*
X159255000Y-82755000D01*
X152020000Y-82980000D02*
X153130000Y-82980000D01*
X153980000Y-82980000D02*
X154000000Y-83000000D01*
X154000000Y-83000000D02*
X154245000Y-82755000D01*
X151000000Y-93500000D02*
X151000000Y-84000000D01*
X152000000Y-94500000D02*
X151000000Y-93500000D01*
X151825000Y-81675000D02*
X151825000Y-80500000D01*
X151000000Y-84000000D02*
X152020000Y-82980000D01*
X159500000Y-83000000D02*
X159500000Y-84995000D01*
%TO.N,/INT*%
X143830000Y-85520000D02*
X145980000Y-85520000D01*
X145980000Y-85520000D02*
X146675000Y-84825000D01*
X146675000Y-84825000D02*
X146675000Y-80500000D01*
D20*
%TO.N,Net-(SW1-Pad1)*%
X153629500Y-85520000D02*
X154000000Y-85149500D01*
X153130000Y-85520000D02*
X153629500Y-85520000D01*
%TD*%
M02*
